<mxfile host="app.diagrams.net" agent="Mozilla/5.0 (Macintosh; Intel Mac OS X 10_15_7) AppleWebKit/537.36 (KHTML, like Gecko) Chrome/129.0.0.0 Safari/537.36" version="24.7.16">
  <diagram name="第 1 页" id="evJlGLYeDG0EueXRqf-O">
    <mxGraphModel dx="799" dy="551" grid="1" gridSize="10" guides="1" tooltips="1" connect="1" arrows="1" fold="1" page="1" pageScale="1" pageWidth="827" pageHeight="1169" math="0" shadow="0">
      <root>
        <mxCell id="0" />
        <mxCell id="1" parent="0" />
        <mxCell id="u6C4ndxUAgWvgomHMau4-12" value="打开团队限制标记" style="rounded=0;whiteSpace=wrap;html=1;align=left;verticalAlign=top;fillColor=#f8cecc;strokeColor=#b85450;" vertex="1" parent="1">
          <mxGeometry x="10" y="50" width="370" height="310" as="geometry" />
        </mxCell>
        <mxCell id="u6C4ndxUAgWvgomHMau4-7" style="edgeStyle=orthogonalEdgeStyle;rounded=0;orthogonalLoop=1;jettySize=auto;html=1;exitX=0.5;exitY=1;exitDx=0;exitDy=0;entryX=0.5;entryY=0;entryDx=0;entryDy=0;" edge="1" parent="1" source="u6C4ndxUAgWvgomHMau4-1" target="u6C4ndxUAgWvgomHMau4-2">
          <mxGeometry relative="1" as="geometry" />
        </mxCell>
        <mxCell id="u6C4ndxUAgWvgomHMau4-8" style="edgeStyle=orthogonalEdgeStyle;rounded=0;orthogonalLoop=1;jettySize=auto;html=1;exitX=0.5;exitY=1;exitDx=0;exitDy=0;entryX=0.5;entryY=0;entryDx=0;entryDy=0;" edge="1" parent="1" source="u6C4ndxUAgWvgomHMau4-1" target="u6C4ndxUAgWvgomHMau4-3">
          <mxGeometry relative="1" as="geometry" />
        </mxCell>
        <mxCell id="u6C4ndxUAgWvgomHMau4-1" value="A" style="rounded=0;whiteSpace=wrap;html=1;fillColor=#d5e8d4;strokeColor=#82b366;" vertex="1" parent="1">
          <mxGeometry x="140" y="120" width="80" height="40" as="geometry" />
        </mxCell>
        <mxCell id="u6C4ndxUAgWvgomHMau4-9" style="edgeStyle=orthogonalEdgeStyle;rounded=0;orthogonalLoop=1;jettySize=auto;html=1;exitX=0.5;exitY=1;exitDx=0;exitDy=0;entryX=0.5;entryY=0;entryDx=0;entryDy=0;" edge="1" parent="1" source="u6C4ndxUAgWvgomHMau4-2" target="u6C4ndxUAgWvgomHMau4-4">
          <mxGeometry relative="1" as="geometry" />
        </mxCell>
        <mxCell id="u6C4ndxUAgWvgomHMau4-10" style="edgeStyle=orthogonalEdgeStyle;rounded=0;orthogonalLoop=1;jettySize=auto;html=1;exitX=0.5;exitY=1;exitDx=0;exitDy=0;entryX=0.5;entryY=0;entryDx=0;entryDy=0;" edge="1" parent="1" source="u6C4ndxUAgWvgomHMau4-2" target="u6C4ndxUAgWvgomHMau4-5">
          <mxGeometry relative="1" as="geometry" />
        </mxCell>
        <mxCell id="u6C4ndxUAgWvgomHMau4-2" value="B" style="rounded=0;whiteSpace=wrap;html=1;fillColor=#d5e8d4;strokeColor=#82b366;" vertex="1" parent="1">
          <mxGeometry x="80" y="200" width="80" height="40" as="geometry" />
        </mxCell>
        <mxCell id="u6C4ndxUAgWvgomHMau4-11" style="edgeStyle=orthogonalEdgeStyle;rounded=0;orthogonalLoop=1;jettySize=auto;html=1;exitX=0.5;exitY=1;exitDx=0;exitDy=0;entryX=0.5;entryY=0;entryDx=0;entryDy=0;" edge="1" parent="1" source="u6C4ndxUAgWvgomHMau4-3" target="u6C4ndxUAgWvgomHMau4-6">
          <mxGeometry relative="1" as="geometry" />
        </mxCell>
        <mxCell id="u6C4ndxUAgWvgomHMau4-3" value="C" style="rounded=0;whiteSpace=wrap;html=1;fillColor=#d5e8d4;strokeColor=#82b366;" vertex="1" parent="1">
          <mxGeometry x="200" y="200" width="80" height="40" as="geometry" />
        </mxCell>
        <mxCell id="u6C4ndxUAgWvgomHMau4-4" value="B1" style="rounded=0;whiteSpace=wrap;html=1;fillColor=#f5f5f5;fontColor=#333333;strokeColor=#666666;" vertex="1" parent="1">
          <mxGeometry x="20" y="280" width="80" height="40" as="geometry" />
        </mxCell>
        <mxCell id="u6C4ndxUAgWvgomHMau4-5" value="B2" style="rounded=0;whiteSpace=wrap;html=1;fillColor=#f5f5f5;fontColor=#333333;strokeColor=#666666;" vertex="1" parent="1">
          <mxGeometry x="140" y="280" width="80" height="40" as="geometry" />
        </mxCell>
        <mxCell id="u6C4ndxUAgWvgomHMau4-6" value="C1" style="rounded=0;whiteSpace=wrap;html=1;fillColor=#f5f5f5;fontColor=#333333;strokeColor=#666666;" vertex="1" parent="1">
          <mxGeometry x="280" y="280" width="80" height="40" as="geometry" />
        </mxCell>
        <mxCell id="u6C4ndxUAgWvgomHMau4-13" value="无团队限制标记" style="rounded=0;whiteSpace=wrap;html=1;align=left;verticalAlign=top;" vertex="1" parent="1">
          <mxGeometry x="430" y="50" width="370" height="310" as="geometry" />
        </mxCell>
        <mxCell id="u6C4ndxUAgWvgomHMau4-14" style="edgeStyle=orthogonalEdgeStyle;rounded=0;orthogonalLoop=1;jettySize=auto;html=1;exitX=0.5;exitY=1;exitDx=0;exitDy=0;entryX=0.5;entryY=0;entryDx=0;entryDy=0;" edge="1" parent="1" source="u6C4ndxUAgWvgomHMau4-16" target="u6C4ndxUAgWvgomHMau4-19">
          <mxGeometry relative="1" as="geometry" />
        </mxCell>
        <mxCell id="u6C4ndxUAgWvgomHMau4-15" style="edgeStyle=orthogonalEdgeStyle;rounded=0;orthogonalLoop=1;jettySize=auto;html=1;exitX=0.5;exitY=1;exitDx=0;exitDy=0;entryX=0.5;entryY=0;entryDx=0;entryDy=0;" edge="1" parent="1" source="u6C4ndxUAgWvgomHMau4-16" target="u6C4ndxUAgWvgomHMau4-21">
          <mxGeometry relative="1" as="geometry" />
        </mxCell>
        <mxCell id="u6C4ndxUAgWvgomHMau4-16" value="A" style="rounded=0;whiteSpace=wrap;html=1;fillColor=#d5e8d4;strokeColor=#82b366;" vertex="1" parent="1">
          <mxGeometry x="560" y="120" width="80" height="40" as="geometry" />
        </mxCell>
        <mxCell id="u6C4ndxUAgWvgomHMau4-17" style="edgeStyle=orthogonalEdgeStyle;rounded=0;orthogonalLoop=1;jettySize=auto;html=1;exitX=0.5;exitY=1;exitDx=0;exitDy=0;entryX=0.5;entryY=0;entryDx=0;entryDy=0;" edge="1" parent="1" source="u6C4ndxUAgWvgomHMau4-19" target="u6C4ndxUAgWvgomHMau4-22">
          <mxGeometry relative="1" as="geometry" />
        </mxCell>
        <mxCell id="u6C4ndxUAgWvgomHMau4-18" style="edgeStyle=orthogonalEdgeStyle;rounded=0;orthogonalLoop=1;jettySize=auto;html=1;exitX=0.5;exitY=1;exitDx=0;exitDy=0;entryX=0.5;entryY=0;entryDx=0;entryDy=0;" edge="1" parent="1" source="u6C4ndxUAgWvgomHMau4-19" target="u6C4ndxUAgWvgomHMau4-23">
          <mxGeometry relative="1" as="geometry" />
        </mxCell>
        <mxCell id="u6C4ndxUAgWvgomHMau4-19" value="B" style="rounded=0;whiteSpace=wrap;html=1;fillColor=#d5e8d4;strokeColor=#82b366;" vertex="1" parent="1">
          <mxGeometry x="500" y="200" width="80" height="40" as="geometry" />
        </mxCell>
        <mxCell id="u6C4ndxUAgWvgomHMau4-20" style="edgeStyle=orthogonalEdgeStyle;rounded=0;orthogonalLoop=1;jettySize=auto;html=1;exitX=0.5;exitY=1;exitDx=0;exitDy=0;entryX=0.5;entryY=0;entryDx=0;entryDy=0;" edge="1" parent="1" source="u6C4ndxUAgWvgomHMau4-21" target="u6C4ndxUAgWvgomHMau4-24">
          <mxGeometry relative="1" as="geometry" />
        </mxCell>
        <mxCell id="u6C4ndxUAgWvgomHMau4-21" value="C" style="rounded=0;whiteSpace=wrap;html=1;fillColor=#d5e8d4;strokeColor=#82b366;" vertex="1" parent="1">
          <mxGeometry x="620" y="200" width="80" height="40" as="geometry" />
        </mxCell>
        <mxCell id="u6C4ndxUAgWvgomHMau4-22" value="B1" style="rounded=0;whiteSpace=wrap;html=1;fillColor=#d5e8d4;strokeColor=#82b366;" vertex="1" parent="1">
          <mxGeometry x="440" y="280" width="80" height="40" as="geometry" />
        </mxCell>
        <mxCell id="u6C4ndxUAgWvgomHMau4-23" value="B2" style="rounded=0;whiteSpace=wrap;html=1;fillColor=#d5e8d4;strokeColor=#82b366;" vertex="1" parent="1">
          <mxGeometry x="560" y="280" width="80" height="40" as="geometry" />
        </mxCell>
        <mxCell id="u6C4ndxUAgWvgomHMau4-24" value="C1" style="rounded=0;whiteSpace=wrap;html=1;fillColor=#d5e8d4;strokeColor=#82b366;" vertex="1" parent="1">
          <mxGeometry x="700" y="280" width="80" height="40" as="geometry" />
        </mxCell>
        <mxCell id="u6C4ndxUAgWvgomHMau4-25" value="可提现" style="rounded=0;whiteSpace=wrap;html=1;fillColor=#d5e8d4;strokeColor=#82b366;" vertex="1" parent="1">
          <mxGeometry x="490" y="390" width="80" height="40" as="geometry" />
        </mxCell>
        <mxCell id="u6C4ndxUAgWvgomHMau4-26" value="不可提现" style="rounded=0;whiteSpace=wrap;html=1;fillColor=#f5f5f5;fontColor=#333333;strokeColor=#666666;" vertex="1" parent="1">
          <mxGeometry x="590" y="390" width="80" height="40" as="geometry" />
        </mxCell>
      </root>
    </mxGraphModel>
  </diagram>
</mxfile>
